<svg xmlns="http://www.w3.org/2000/svg" style="display: none;"><symbol id="airplane-travelling-around-earth" viewBox="0 0 46.184 46.184"><title>airplane-travelling-around-earth</title><path d="M7.746,32.708c-1.244-2.01-2.152-5.084-2.152-8.371c0-9.856,8.019-17.875,17.873-17.875c2.029,0,3.975,0.357,5.793,0.982 l-2.17-2.635c-1.177-0.219-2.385-0.348-3.623-0.348c-10.958,0-19.873,8.916-19.873,19.875c0,3.659,1.013,7.08,2.434,9.387 L7.746,32.708z"/><path d="M40.784,19.93c0.359,1.41,0.557,2.885,0.557,4.407c0,9.854-8.019,17.873-17.874,17.873c-4.185,0-8.027-1.453-11.071-3.875 l-1.77,1.127c3.463,2.955,7.941,4.748,12.841,4.748c10.959,0,19.874-8.916,19.874-19.873c0-0.726-0.051-1.437-0.127-2.14 L40.784,19.93z"/><path d="M46.157,18.898c-0.248-1.183-5.137-8.079-5.137-8.079s4.153-4.012,4.428-4.488c0.273-0.476,1.325-1.543-0.016-2.646 c-1.342-1.101-2.303-0.389-2.778,0.036c-0.477,0.427-4.044,3.622-4.044,3.622s-7.241-5.272-8.437-5.365 c-1.195-0.094-1.993,0.975-1.993,0.975l7.366,7.427l-3.61,4.259l-3.225-0.941l-1.783,1.098c0,0,3.539,1.543,4.239,2.432 c0.701,0.889,1.625,3.84,1.625,3.84l1.699-0.895l-0.793-3.885l4.098-3.262l7.025,7.704C44.823,20.73,46.405,20.081,46.157,18.898z "/><path d="M29.617,18.401c-0.666-0.625-1.729-1.018-1.729-1.018C19.088,25.935,8.106,35.353,5.717,35.656 c-0.907,0.065-1.479-0.146-1.705-0.634c-0.255-0.557-0.562-0.917,0.087-1.569l-1.856-4.137c-1.772,1.782-2.859,5.212-1.863,7.377 c0.868,1.888,2.735,2.974,5.062,2.974c0.188,0,0.381-0.008,0.574-0.021c4.728-0.352,20.071-14.934,24.662-19.393 C30.677,20.252,30.283,19.026,29.617,18.401z"/></symbol><symbol id="github-sign" viewBox="0 0 438.536 438.536"><title>github-sign</title><path d="M158.173,352.599c-3.049,0.568-4.381,1.999-3.999,4.281c0.38,2.283,2.093,3.046,5.138,2.283 c3.049-0.76,4.38-2.095,3.997-3.997C162.931,353.074,161.218,352.216,158.173,352.599z"/><path d="M141.898,354.885c-3.046,0-4.568,1.041-4.568,3.139c0,2.474,1.619,3.518,4.853,3.138c3.046,0,4.57-1.047,4.57-3.138 C146.753,355.553,145.134,354.502,141.898,354.885z"/><path d="M119.629,354.022c-0.76,2.095,0.478,3.519,3.711,4.284c2.855,1.137,4.664,0.568,5.424-1.714 c0.572-2.091-0.666-3.61-3.711-4.568C122.197,351.265,120.39,351.922,119.629,354.022z"/><path d="M414.41,24.123C398.326,8.042,378.964,0,356.309,0H82.225C59.577,0,40.208,8.042,24.123,24.123 C8.042,40.207,0,59.576,0,82.225v274.088c0,22.65,8.042,42.017,24.123,58.098c16.084,16.084,35.454,24.126,58.102,24.126h63.953 c4.184,0,7.327-0.144,9.42-0.424c2.092-0.288,4.184-1.526,6.279-3.717c2.096-2.187,3.14-5.376,3.14-9.562 c0-0.568-0.05-7.046-0.144-19.417c-0.097-12.375-0.144-22.176-0.144-29.41l-6.567,1.143c-4.187,0.76-9.469,1.095-15.846,0.999 c-6.374-0.096-12.99-0.76-19.841-1.998c-6.855-1.239-13.229-4.093-19.13-8.562c-5.898-4.477-10.085-10.328-12.56-17.559 l-2.856-6.571c-1.903-4.373-4.899-9.229-8.992-14.554c-4.093-5.332-8.232-8.949-12.419-10.852l-1.999-1.428 c-1.331-0.951-2.568-2.098-3.711-3.429c-1.141-1.335-1.997-2.669-2.568-3.997c-0.571-1.335-0.097-2.43,1.427-3.289 c1.524-0.855,4.281-1.279,8.28-1.279l5.708,0.855c3.808,0.76,8.516,3.042,14.134,6.851c5.614,3.806,10.229,8.754,13.846,14.843 c4.38,7.806,9.657,13.75,15.846,17.843c6.184,4.097,12.419,6.143,18.699,6.143s11.704-0.476,16.274-1.424 c4.565-0.954,8.848-2.385,12.847-4.288c1.713-12.751,6.377-22.559,13.988-29.41c-10.848-1.143-20.602-2.854-29.265-5.14 c-8.658-2.286-17.605-5.995-26.835-11.136c-9.234-5.14-16.894-11.512-22.985-19.13c-6.09-7.618-11.088-17.61-14.987-29.978 c-3.901-12.375-5.852-26.652-5.852-42.829c0-23.029,7.521-42.637,22.557-58.814c-7.044-17.32-6.379-36.732,1.997-58.242 c5.52-1.714,13.706-0.428,24.554,3.855c10.85,4.286,18.794,7.951,23.84,10.992c5.046,3.042,9.089,5.614,12.135,7.71 c17.705-4.949,35.976-7.423,54.818-7.423c18.841,0,37.115,2.474,54.821,7.423l10.849-6.852c7.426-4.57,16.18-8.757,26.269-12.562 c10.088-3.806,17.795-4.854,23.127-3.14c8.562,21.51,9.328,40.922,2.279,58.241c15.036,16.179,22.559,35.786,22.559,58.815 c0,16.18-1.951,30.505-5.852,42.969c-3.898,12.467-8.939,22.463-15.13,29.981c-6.184,7.519-13.894,13.843-23.124,18.986 c-9.232,5.137-18.178,8.853-26.84,11.132c-8.661,2.286-18.414,4.004-29.263,5.147c9.891,8.562,14.839,22.072,14.839,40.538v68.238 c0,3.237,0.472,5.852,1.424,7.851c0.958,1.998,2.478,3.374,4.571,4.141c2.102,0.76,3.949,1.235,5.571,1.424 c1.622,0.191,3.949,0.287,6.995,0.287h63.953c22.648,0,42.018-8.042,58.095-24.126c16.084-16.084,24.126-35.454,24.126-58.102 V82.225C438.533,59.576,430.491,40.204,414.41,24.123z"/><path d="M86.793,319.195c-1.331,0.948-1.141,2.471,0.572,4.565c1.906,1.902,3.427,2.189,4.57,0.855 c1.331-0.948,1.141-2.471-0.575-4.569C89.458,318.336,87.936,318.049,86.793,319.195z"/><path d="M77.374,312.057c-0.57,1.335,0.096,2.478,1.999,3.426c1.521,0.955,2.762,0.767,3.711-0.568 c0.57-1.335-0.096-2.478-1.999-3.433C79.182,310.91,77.945,311.102,77.374,312.057z"/><path d="M95.646,330.331c-1.715,0.948-1.715,2.666,0,5.137c1.713,2.478,3.328,3.142,4.853,1.998c1.714-1.334,1.714-3.142,0-5.427 C98.978,329.571,97.359,328.993,95.646,330.331z"/><path d="M105.641,343.174c-1.714,1.526-1.336,3.327,1.142,5.428c2.281,2.279,4.185,2.566,5.708,0.849 c1.524-1.519,1.143-3.326-1.142-5.42C109.068,341.751,107.164,341.463,105.641,343.174z"/></symbol><symbol id="black-back-closed-envelope-shape" viewBox="0 0 550.795 550.795"><title>black-back-closed-envelope-shape</title><path d="M501.613,491.782c12.381,0,23.109-4.088,32.229-12.16L377.793,323.567c-3.744,2.681-7.373,5.288-10.801,7.767 c-11.678,8.604-21.156,15.318-28.434,20.129c-7.277,4.822-16.959,9.737-29.045,14.755c-12.094,5.024-23.361,7.528-33.813,7.528 h-0.306h-0.306c-10.453,0-21.72-2.503-33.813-7.528c-12.093-5.018-21.775-9.933-29.045-14.755 c-7.277-4.811-16.75-11.524-28.434-20.129c-3.256-2.387-6.867-5.006-10.771-7.809L16.946,479.622 c9.119,8.072,19.854,12.16,32.234,12.16H501.613z"/><path d="M31.047,225.299C19.37,217.514,9.015,208.598,0,198.555V435.98l137.541-137.541 C110.025,279.229,74.572,254.877,31.047,225.299z"/><path d="M520.059,225.299c-41.865,28.336-77.447,52.73-106.75,73.195l137.486,137.492V198.555 C541.98,208.396,531.736,217.306,520.059,225.299z"/><path d="M501.613,59.013H49.181c-15.784,0-27.919,5.33-36.42,15.979C4.253,85.646,0.006,98.97,0.006,114.949 c0,12.907,5.636,26.892,16.903,41.959c11.267,15.061,23.256,26.891,35.961,35.496c6.965,4.921,27.969,19.523,63.012,43.801 c18.917,13.109,35.368,24.535,49.505,34.395c12.05,8.396,22.442,15.667,31.022,21.701c0.985,0.691,2.534,1.799,4.59,3.269 c2.215,1.591,5.018,3.61,8.476,6.107c6.659,4.816,12.191,8.709,16.597,11.683c4.4,2.975,9.731,6.298,15.985,9.988 c6.249,3.685,12.143,6.456,17.675,8.299c5.533,1.842,10.655,2.766,15.367,2.766h0.306h0.306c4.711,0,9.834-0.924,15.368-2.766 c5.531-1.843,11.42-4.608,17.674-8.299c6.248-3.69,11.572-7.02,15.986-9.988c4.406-2.974,9.938-6.866,16.598-11.683 c3.451-2.497,6.254-4.517,8.469-6.102c2.057-1.476,3.605-2.577,4.596-3.274c6.684-4.651,17.1-11.892,31.104-21.616 c25.482-17.705,63.01-43.764,112.742-78.281c14.957-10.447,27.453-23.054,37.496-37.803c10.025-14.749,15.051-30.22,15.051-46.408 c0-13.525-4.873-25.098-14.598-34.737C526.461,63.829,514.932,59.013,501.613,59.013z"/></symbol><symbol id="facebook-logo" viewBox="0 0 90 90"><title>facebook-logo</title><path id="Facebook__x28_alt_x29_" d="M90,15.001C90,7.119,82.884,0,75,0H15C7.116,0,0,7.119,0,15.001v59.998 C0,82.881,7.116,90,15.001,90H45V56H34V41h11v-5.844C45,25.077,52.568,16,61.875,16H74v15H61.875C60.548,31,59,32.611,59,35.024V41 h15v15H59v34h16c7.884,0,15-7.119,15-15.001V15.001z"/></symbol><symbol id="linkedin-sign" viewBox="0 0 438.536 438.536"><title>linkedin-sign</title><path d="M414.41,24.123C398.333,8.042,378.963,0,356.315,0H82.228C59.58,0,40.21,8.042,24.126,24.123 C8.045,40.207,0.003,59.576,0.003,82.225v274.084c0,22.647,8.042,42.018,24.123,58.102c16.084,16.084,35.454,24.126,58.102,24.126 h274.084c22.648,0,42.018-8.042,58.095-24.126c16.084-16.084,24.126-35.454,24.126-58.102V82.225 C438.532,59.576,430.49,40.204,414.41,24.123z M133.618,367.157H67.666V169.016h65.952V367.157z M127.626,132.332 c-6.851,6.567-15.893,9.851-27.124,9.851h-0.288c-10.848,0-19.648-3.284-26.407-9.851c-6.76-6.567-10.138-14.703-10.138-24.41 c0-9.897,3.476-18.083,10.421-24.556c6.95-6.471,15.942-9.708,26.98-9.708c11.039,0,19.89,3.237,26.553,9.708 c6.661,6.473,10.088,14.659,10.277,24.556C137.899,117.625,134.477,125.761,127.626,132.332z M370.873,367.157h-65.952v-105.92 c0-29.879-11.036-44.823-33.116-44.823c-8.374,0-15.42,2.331-21.128,6.995c-5.715,4.661-9.996,10.324-12.847,16.991 c-1.335,3.422-1.999,8.75-1.999,15.981v110.775h-65.952c0.571-119.529,0.571-185.579,0-198.142h65.952v27.974 c13.867-21.681,33.558-32.544,59.101-32.544c22.84,0,41.21,7.52,55.104,22.554c13.895,15.037,20.841,37.214,20.841,66.519v113.64 H370.873z"/></symbol></svg>